<svg xmlns="http://www.w3.org/2000/svg" version="1.1" xmlns:xlink="http://www.w3.org/1999/xlink" xmlns:svgjs="http://svgjs.dev/svgjs" width="1200" height="800" preserveAspectRatio="none" viewBox="0 0 1200 800">
    <g mask="url(&quot;#SvgjsMask1038&quot;)" fill="none">
        <rect width="1200" height="800" x="0" y="0" fill="#0e2a47"></rect>
        <path d="M -66.54084421990542,72 C -32.14,146.4 36.66,394.4 105.45915578009458,444 C 174.26,493.6 208.66,294.2 277.4591557800946,320 C 346.26,345.8 380.66,566.4 449.4591557800946,573 C 518.26,579.6 552.66,386.4 621.4591557800945,353 C 690.26,319.6 724.66,399.6 793.4591557800945,406 C 862.26,412.4 896.66,369 965.4591557800945,385 C 1034.26,401 1068.66,518.8 1137.4591557800945,486 C 1206.26,453.2 1296.95,197.4 1309.4591557800945,221 C 1321.97,244.6 1221.89,527.4 1200,604" stroke="rgba(51, 121, 194, 0.58)" stroke-width="2"></path>
        <path d="M -127.3909448813202,426 C -92.99,358.6 -24.19,60.4 44.60905511867981,89 C 113.41,117.6 147.81,519 216.6090551186798,569 C 285.41,619 319.81,361.8 388.6090551186798,339 C 457.41,316.2 491.81,444.8 560.6090551186799,455 C 629.41,465.2 663.81,394.2 732.6090551186799,390 C 801.41,385.8 835.81,475.8 904.6090551186799,434 C 973.41,392.2 1007.81,185.2 1076.6090551186799,181 C 1145.41,176.8 1223.93,374.8 1248.6090551186799,413 C 1273.29,451.2 1209.72,380.2 1200,372" stroke="rgba(51, 121, 194, 0.58)" stroke-width="2"></path>
        <path d="M -225.47015454763076,389 C -191.07,435.4 -122.27,689.4 -53.47015454763076,621 C 15.33,552.6 49.73,87.2 118.52984545236924,47 C 187.33,6.8 221.73,406.8 290.5298454523692,420 C 359.33,433.2 393.73,41.2 462.5298454523692,113 C 531.33,184.8 565.73,729.6 634.5298454523693,779 C 703.33,828.4 737.73,433 806.5298454523693,360 C 875.33,287 909.73,423.6 978.5298454523693,414 C 1047.33,404.4 1106.24,269.2 1150.5298454523693,312 C 1194.82,354.8 1190.11,564.8 1200,628" stroke="rgba(51, 121, 194, 0.58)" stroke-width="2"></path>
        <path d="M -161.5880882028643,487 C -127.19,466.4 -58.39,363 10.411911797135712,384 C 79.21,405 113.61,663 182.4119117971357,592 C 251.21,521 285.61,19.8 354.4119117971357,29 C 423.21,38.2 457.61,596.6 526.4119117971358,638 C 595.21,679.4 629.61,239.6 698.4119117971358,236 C 767.21,232.4 801.61,607 870.4119117971358,620 C 939.21,633 973.61,291 1042.4119117971356,301 C 1111.21,311 1182.89,689.2 1214.4119117971356,670 C 1245.93,650.8 1202.88,298 1200,205" stroke="rgba(51, 121, 194, 0.58)" stroke-width="2"></path>
    </g>
    <defs>
        <mask id="SvgjsMask1038">
            <rect width="1200" height="800" fill="#ffffff"></rect>
        </mask>
    </defs>
</svg>